<?xml version="1.0" encoding="UTF-8" standalone="no"?>
<!DOCTYPE svg PUBLIC "-//W3C//DTD SVG 1.1//EN" "http://www.w3.org/Graphics/SVG/1.1/DTD/svg11.dtd">
<!-- Created with Vectornator (http://vectornator.io/) -->
<svg height="100%" stroke-miterlimit="10" style="fill-rule:nonzero;clip-rule:evenodd;stroke-linecap:round;stroke-linejoin:round;" version="1.1" viewBox="0 0 24 24" width="100%" xml:space="preserve" xmlns="http://www.w3.org/2000/svg" xmlns:xlink="http://www.w3.org/1999/xlink">
<defs/>
<g id="무제">
<path d="M7.51297 12C7.51297 9.52188 9.52188 7.51297 12 7.51297C14.4781 7.51297 16.487 9.52188 16.487 12C16.487 14.4781 14.4781 16.487 12 16.487C9.52188 16.487 7.51297 14.4781 7.51297 12ZM12 13.1218C11.3805 13.1218 10.8782 12.6195 10.8782 12C10.8782 11.3805 11.3805 10.8782 12 10.8782C12.6195 10.8782 13.1218 11.3805 13.1218 12C13.1218 12.6195 12.6195 13.1218 12 13.1218Z" fill="#000000" fill-rule="evenodd" opacity="1" stroke="none"/>
<path d="M1.90418 12C1.90418 6.42423 6.42423 1.90418 12 1.90418C17.5758 1.90418 22.0958 6.42423 22.0958 12C22.0958 17.5758 17.5758 22.0958 12 22.0958C6.42423 22.0958 1.90418 17.5758 1.90418 12ZM12 19.8523C7.6633 19.8523 4.14769 16.3367 4.14769 12C4.14769 7.6633 7.6633 4.14769 12 4.14769C16.3367 4.14769 19.8523 7.6633 19.8523 12C19.8523 16.3367 16.3367 19.8523 12 19.8523Z" fill="#000000" fill-rule="evenodd" opacity="1" stroke="none"/>
</g>
</svg>
