<?xml version="1.0" encoding="UTF-8" standalone="no"?>
<!DOCTYPE svg PUBLIC "-//W3C//DTD SVG 1.1//EN" "http://www.w3.org/Graphics/SVG/1.1/DTD/svg11.dtd">
<!-- Created with Vectornator (http://vectornator.io/) -->
<svg height="100%" stroke-miterlimit="10" style="fill-rule:nonzero;clip-rule:evenodd;stroke-linecap:round;stroke-linejoin:round;" version="1.1" viewBox="0 0 20 20" width="100%" xml:space="preserve" xmlns="http://www.w3.org/2000/svg" xmlns:xlink="http://www.w3.org/1999/xlink">
<defs/>
<g id="Page-1">
<path d="M4.168 4.168C3.84552 4.49049 3.84552 5.01257 4.168 5.33424C4.49049 5.65673 5.01257 5.65673 5.33424 5.33424C5.65673 5.01257 5.65673 4.49049 5.33424 4.168C5.01257 3.84552 4.49049 3.84552 4.168 4.168M14.6658 14.6658C14.3433 14.9874 14.3433 15.5103 14.6658 15.832C14.9874 16.1545 15.5103 16.1545 15.832 15.832C16.1545 15.5103 16.1545 14.9874 15.832 14.6658C15.5103 14.3433 14.9874 14.3433 14.6658 14.6658M10 16.5982C9.54472 16.5982 9.17522 16.9677 9.17522 17.423C9.17522 17.8783 9.54472 18.2478 10 18.2478C10.4553 18.2478 10.8248 17.8783 10.8248 17.423C10.8248 16.9677 10.4553 16.5982 10 16.5982M10 3.40179C10.4553 3.40179 10.8248 3.03229 10.8248 2.57701C10.8248 2.12173 10.4553 1.75223 10 1.75223C9.54472 1.75223 9.17522 2.12173 9.17522 2.57701C9.17522 3.03229 9.54472 3.40179 10 3.40179M4.168 14.6658C3.84552 14.9874 3.84552 15.5103 4.168 15.832C4.49049 16.1545 5.01257 16.1545 5.33424 15.832C5.65673 15.5103 5.65673 14.9874 5.33424 14.6658C5.01257 14.3433 4.49049 14.3433 4.168 14.6658M14.6658 4.168C14.3433 4.49049 14.3433 5.01257 14.6658 5.33424C14.9874 5.65673 15.5103 5.65673 15.832 5.33424C16.1545 5.01257 16.1545 4.49049 15.832 4.168C15.5103 3.84552 14.9874 3.84552 14.6658 4.168M17.423 9.17522C16.9677 9.17522 16.5982 9.54472 16.5982 10C16.5982 10.4553 16.9677 10.8248 17.423 10.8248C17.8783 10.8248 18.2478 10.4553 18.2478 10C18.2478 9.54472 17.8783 9.17522 17.423 9.17522M2.57701 9.17522C2.12173 9.17522 1.75223 9.54472 1.75223 10C1.75223 10.4553 2.12173 10.8248 2.57701 10.8248C3.03229 10.8248 3.40179 10.4553 3.40179 10C3.40179 9.54472 3.03229 9.17522 2.57701 9.17522M13.2991 10C13.2991 11.8219 11.8219 13.2991 10 13.2991C8.17807 13.2991 6.70089 11.8219 6.70089 10C6.70089 8.17807 8.17807 6.70089 10 6.70089C11.8219 6.70089 13.2991 8.17807 13.2991 10" fill="#000000" fill-rule="evenodd" opacity="1" stroke="none"/>
</g>
</svg>
