<?xml version="1.0" encoding="UTF-8" standalone="no"?>
<!DOCTYPE svg PUBLIC "-//W3C//DTD SVG 1.1//EN" "http://www.w3.org/Graphics/SVG/1.1/DTD/svg11.dtd">
<!-- Created with Vectornator (http://vectornator.io/) -->
<svg height="100%" stroke-miterlimit="10" style="fill-rule:nonzero;clip-rule:evenodd;stroke-linecap:round;stroke-linejoin:round;" version="1.1" viewBox="0 0 64 64" width="100%" xml:space="preserve" xmlns="http://www.w3.org/2000/svg" xmlns:xlink="http://www.w3.org/1999/xlink">
<defs/>
<g id="무제">
<g opacity="1">
<path d="M57.4483 6.55107C55.1202 4.22301 51.3447 4.22301 49.0166 6.55107L45.4042 10.1668L53.8351 18.596L57.4483 14.9844C59.7763 12.6555 59.7763 8.88083 57.4483 6.55107Z" fill="#ffffff" fill-rule="nonzero" opacity="1" stroke="none"/>
<path d="M51.4261 21.0056L42.9951 12.5746L42.9951 12.5746L44.1989 11.3708L44.1989 11.3708L52.6299 19.8018L52.6299 19.8018L51.4261 21.0056L51.4261 21.0056Z" fill="#ffffff" fill-rule="nonzero" opacity="1" stroke="none"/>
<path d="M22.586 32.9834C24.5469 33.5052 26.4015 34.5243 27.9391 36.0611C29.4758 37.5987 30.495 39.4542 31.0168 41.4133L50.221 22.2092L41.791 13.7792L22.586 32.9834Z" fill="#ffffff" fill-rule="nonzero" opacity="1" stroke="none"/>
<path d="M12.281 37.2646C8.2853 41.2612 7.82632 45.0146 7.33929 48.9908C6.9942 51.811 6.63637 54.7289 4.90753 57.9384C4.72904 58.2707 4.78939 58.6796 5.05543 58.9456C5.32147 59.2116 5.7303 59.2711 6.06264 59.0935C9.27212 57.3647 12.1901 57.0068 15.0102 56.6617C18.9855 56.1747 22.7398 55.7157 26.7364 51.7192C33.8787 44.5769 26.8078 37.3386 26.7364 37.2655C26.6624 37.1932 19.425 30.1224 12.281 37.2646ZM24.3259 49.3104C23.9927 49.6436 23.4547 49.6436 23.1215 49.3104C22.7883 48.9772 22.7883 48.4392 23.1215 48.106C25.1172 46.1094 25.1172 42.8744 23.1215 40.8787C22.7883 40.5447 22.7883 40.0075 23.1215 39.6743C23.4547 39.3411 23.9927 39.3411 24.3259 39.6743C26.9863 42.3347 26.9863 46.65 24.3259 49.3104Z" fill="#ffffff" fill-rule="nonzero" opacity="1" stroke="none"/>
</g>
</g>
</svg>
