<?xml version="1.0" encoding="UTF-8" standalone="no"?>
<!DOCTYPE svg PUBLIC "-//W3C//DTD SVG 1.1//EN" "http://www.w3.org/Graphics/SVG/1.1/DTD/svg11.dtd">
<!-- Created with Vectornator (http://vectornator.io/) -->
<svg height="100%" stroke-miterlimit="10" style="fill-rule:nonzero;clip-rule:evenodd;stroke-linecap:round;stroke-linejoin:round;" version="1.1" viewBox="0 0 16 16" width="100%" xml:space="preserve" xmlns="http://www.w3.org/2000/svg" xmlns:xlink="http://www.w3.org/1999/xlink">
<defs/>
<g id="무제">
<path d="M5.39311 5.39311L4.08766 5.39311C3.84187 5.39311 3.65518 5.58763 3.65518 5.82759C3.65518 6.06053 3.8488 6.26207 4.08766 6.26207L5.39311 6.26207L5.39311 7.56752C5.39311 7.81331 5.58763 8 5.82759 8C6.06053 8 6.26207 7.80637 6.26207 7.56752L6.26207 6.26207L7.56752 6.26207C7.81331 6.26207 8 6.06755 8 5.82759C8 5.59465 7.80637 5.39311 7.56752 5.39311L6.26207 5.39311L6.26207 4.08766C6.26207 3.84187 6.06755 3.65518 5.82759 3.65518C5.59465 3.65518 5.39311 3.8488 5.39311 4.08766L5.39311 5.39311ZM1.04828 8C1.04828 4.16067 4.16848 1.04828 8 1.04828C11.8393 1.04828 14.9517 4.16848 14.9517 8C14.9517 11.8393 11.8315 14.9517 8 14.9517C4.16067 14.9517 1.04828 11.8315 1.04828 8ZM12.3448 3.74251C9.96936 1.36705 6.11797 1.36705 3.74251 3.74251C1.36705 6.11797 1.36705 9.96936 3.74251 12.3448L12.3448 3.74251ZM8.86896 10.1724C8.86896 9.93245 9.05584 9.73793 9.29517 9.73793L11.9186 9.73793C12.154 9.73793 12.3448 9.93947 12.3448 10.1724C12.3448 10.4124 12.1579 10.6069 11.9186 10.6069L9.29517 10.6069C9.05979 10.6069 8.86896 10.4054 8.86896 10.1724Z" fill="#000000" fill-rule="evenodd" opacity="1" stroke="none"/>
</g>
</svg>
