<?xml version="1.0" encoding="UTF-8" standalone="no"?>
<!DOCTYPE svg PUBLIC "-//W3C//DTD SVG 1.1//EN" "http://www.w3.org/Graphics/SVG/1.1/DTD/svg11.dtd">
<!-- Created with Vectornator (http://vectornator.io/) -->
<svg height="100%" stroke-miterlimit="10" style="fill-rule:nonzero;clip-rule:evenodd;stroke-linecap:round;stroke-linejoin:round;" version="1.1" viewBox="0 0 32 32" width="100%" xml:space="preserve" xmlns="http://www.w3.org/2000/svg" xmlns:xlink="http://www.w3.org/1999/xlink">
<defs/>
<g id="무제">
<path d="M16 2.38272C8.47957 2.38272 2.38272 8.47957 2.38272 16C2.38272 23.5204 8.47957 29.6173 16 29.6173C23.5204 29.6173 29.6173 23.5204 29.6173 16L29.6173 16C29.6081 8.48326 23.5167 2.39195 16.0009 2.38272C16.0009 2.38272 16 2.38272 16 2.38272ZM18.2646 19.9236L13.7345 19.9236L11.4689 16L13.7345 12.0764L18.2794 12.0764L20.5311 15.9982L18.2646 19.9236ZM19.8756 12.0764L27.5752 12.0764C27.9915 13.2507 28.2325 14.606 28.2325 16.0166C28.2325 18.5905 27.4311 20.9779 26.0639 22.9416L26.0897 22.9019L19.8756 12.0764ZM27.0037 10.6916L14.5349 10.6916L18.3948 4.00571C22.2141 4.79782 25.3299 7.28124 26.9714 10.6196L27.0037 10.6916ZM16 3.76752C16.3056 3.76752 16.6056 3.79153 16.9066 3.81368L10.6703 14.6161L6.81872 7.94503C9.06488 5.38129 12.3441 3.77029 16 3.76845L16 3.76845L16 3.76752ZM5.89644 9.11658L12.1355 19.9236L4.42392 19.9236C4.00756 18.7493 3.7666 17.395 3.7666 15.9834C3.7666 13.4169 4.56333 11.0368 5.92229 9.07596L5.89551 9.11658L5.89644 9.11658ZM4.99631 21.3084L17.4651 21.3084L13.6061 27.9943C9.7859 27.2022 6.67008 24.7188 5.02862 21.3804C5.02862 21.3804 4.99631 21.3084 4.99631 21.3084ZM16 28.2325C15.6944 28.2325 15.3944 28.2085 15.0934 28.1863L21.3287 17.3876L25.1665 24.0725C22.9213 26.6261 19.6485 28.2297 16 28.2325C16 28.2325 16 28.2325 16 28.2325Z" fill="#FFFFFF" fill-rule="nonzero" opacity="1" stroke="none"/>
</g>
</svg>
