<?xml version="1.0" encoding="UTF-8" standalone="no"?>
<!DOCTYPE svg PUBLIC "-//W3C//DTD SVG 1.1//EN" "http://www.w3.org/Graphics/SVG/1.1/DTD/svg11.dtd">
<!-- Created with Vectornator (http://vectornator.io/) -->
<svg height="100%" stroke-miterlimit="10" style="fill-rule:nonzero;clip-rule:evenodd;stroke-linecap:round;stroke-linejoin:round;" version="1.1" viewBox="0 0 32 32" width="100%" xml:space="preserve" xmlns="http://www.w3.org/2000/svg" xmlns:xlink="http://www.w3.org/1999/xlink">
<defs/>
<g id="무제">
<path d="M4.37872 11.0696C4.37872 6.6351 7.97356 3.04026 12.408 3.04026C16.8425 3.04026 20.4373 6.6351 20.4373 11.0696C20.4373 15.504 16.8425 19.0989 12.408 19.0989C7.97356 19.0989 4.37872 15.504 4.37872 11.0696Z" fill="#160404" fill-opacity="0" fill-rule="nonzero" opacity="1" stroke="#000000" stroke-linecap="butt" stroke-linejoin="round" stroke-width="1.09496"/>
<path d="M3.53336 20.9304C3.53336 16.496 7.1282 12.9011 11.5627 12.9011C15.9971 12.9011 19.592 16.496 19.592 20.9304C19.592 25.3649 15.9971 28.9597 11.5627 28.9597C7.1282 28.9597 3.53336 25.3649 3.53336 20.9304Z" fill="#160404" fill-opacity="0" fill-rule="nonzero" opacity="1" stroke="#000000" stroke-linecap="butt" stroke-linejoin="round" stroke-width="1.09496"/>
<path d="M3.53336 20.9304C3.53336 16.496 7.1282 12.9011 11.5627 12.9011C15.9971 12.9011 19.592 16.496 19.592 20.9304C19.592 25.3649 15.9971 28.9597 11.5627 28.9597C7.1282 28.9597 3.53336 25.3649 3.53336 20.9304Z" fill="#ffffff" fill-rule="nonzero" opacity="1" stroke="#000000" stroke-linecap="butt" stroke-linejoin="round" stroke-width="1.09496"/>
<path d="M12.408 16.1312C12.408 11.6968 16.0029 8.10194 20.4373 8.10194C24.8718 8.10194 28.4666 11.6968 28.4666 16.1312C28.4666 20.5657 24.8718 24.1606 20.4373 24.1606C16.0029 24.1606 12.408 20.5657 12.408 16.1312Z" fill="#000000" fill-rule="nonzero" opacity="1" stroke="#000000" stroke-linecap="butt" stroke-linejoin="round" stroke-width="1.09496"/>
<path d="M4.27619 22.8444" fill="none" opacity="1" stroke="#000000" stroke-linecap="butt" stroke-linejoin="round" stroke-width="1.09496"/>
<path d="M4.37872 24.1606L13.6343 12.9049" fill="none" opacity="1" stroke="#000000" stroke-linecap="butt" stroke-linejoin="round" stroke-width="1.09496"/>
<path d="M3.53336 21.5774L10.6711 12.8974" fill="none" opacity="1" stroke="#000000" stroke-linecap="butt" stroke-linejoin="round" stroke-width="1.09496"/>
<path d="M5.51919 26.4344L13.1183 17.1932" fill="none" opacity="1" stroke="#000000" stroke-linecap="butt" stroke-linejoin="round" stroke-width="1.09496"/>
<path d="M7.3904 27.9202L13.9608 19.93" fill="none" opacity="1" stroke="#000000" stroke-linecap="butt" stroke-linejoin="round" stroke-width="1.09496"/>
<path d="M9.55339 28.9597L15.6239 21.5774" fill="none" opacity="1" stroke="#000000" stroke-linecap="butt" stroke-linejoin="round" stroke-width="1.09496"/>
<path d="M12.408 28.9597L18.4786 21.5774" fill="none" opacity="1" stroke="#000000" stroke-linecap="butt" stroke-linejoin="round" stroke-width="1.09496"/>
</g>
</svg>
