<?xml version="1.0" encoding="UTF-8" standalone="no"?>
<!DOCTYPE svg PUBLIC "-//W3C//DTD SVG 1.1//EN" "http://www.w3.org/Graphics/SVG/1.1/DTD/svg11.dtd">
<!-- Created with Vectornator (http://vectornator.io/) -->
<svg height="100%" stroke-miterlimit="10" style="fill-rule:nonzero;clip-rule:evenodd;stroke-linecap:round;stroke-linejoin:round;" version="1.1" viewBox="0 0 20 20" width="100%" xml:space="preserve" xmlns="http://www.w3.org/2000/svg" xmlns:xlink="http://www.w3.org/1999/xlink">
<defs/>
<g id="무제">
<path d="M10 18.3767C5.39282 18.3767 1.62331 14.6072 1.62331 10C1.62331 5.39282 5.39282 1.62331 10 1.62331C14.6072 1.62331 18.3767 5.39282 18.3767 10C18.3767 14.6072 14.6072 18.3767 10 18.3767ZM10 3.29865C6.31426 3.29865 3.29865 6.31426 3.29865 10C3.29865 13.6857 6.31426 16.7014 10 16.7014C13.6857 16.7014 16.7014 13.6857 16.7014 10C16.7014 6.31426 13.6857 3.29865 10 3.29865Z" fill="#000000" fill-rule="nonzero" opacity="1" stroke="none"/>
<path d="M10 4.97399L10 15.026C12.7643 15.026 15.026 12.7643 15.026 10C15.026 7.23569 12.7643 4.97399 10 4.97399Z" fill="#000000" fill-rule="nonzero" opacity="1" stroke="none"/>
</g>
</svg>
