<?xml version="1.0" encoding="UTF-8" standalone="no"?>
<!DOCTYPE svg PUBLIC "-//W3C//DTD SVG 1.1//EN" "http://www.w3.org/Graphics/SVG/1.1/DTD/svg11.dtd">
<!-- Created with Vectornator (http://vectornator.io/) -->
<svg height="100%" stroke-miterlimit="10" style="fill-rule:nonzero;clip-rule:evenodd;stroke-linecap:round;stroke-linejoin:round;" version="1.1" viewBox="0 0 32 32" width="100%" xml:space="preserve" xmlns="http://www.w3.org/2000/svg" xmlns:xlink="http://www.w3.org/1999/xlink">
<defs/>
<g id="무제">
<path d="M20.4671 6.60249C20.4671 0.761649 11.5824 0.759779 11.5833 6.60249L11.5833 18.9818C10.4284 20.1264 9.71302 21.7133 9.71302 23.4667C9.71302 26.9529 12.539 29.7788 16.0252 29.7788C19.5114 29.7788 22.3373 26.9529 22.3373 23.4667C22.3373 21.7133 21.6219 20.1264 20.4671 18.9818L20.4661 18.9818L20.4671 6.60249ZM16.0252 28.3369C13.3133 28.3369 11.1157 26.1384 11.1157 23.4265C11.1157 21.9742 11.746 20.6697 12.7475 19.771L12.7522 19.7673L12.7578 19.7561C12.8794 19.642 12.9589 19.4849 12.9738 19.31L12.9738 19.3072C12.9748 19.2941 12.9804 19.2848 12.9813 19.2717L12.9869 19.2446L12.9869 6.60156C12.9841 6.552 12.9823 6.49402 12.9823 6.4351C12.9823 4.84164 14.2737 3.55022 15.8671 3.55022C15.9232 3.55022 15.9794 3.55209 16.0345 3.55489L16.027 3.55489C16.0747 3.55209 16.1299 3.55022 16.186 3.55022C17.7795 3.55022 19.0709 4.84164 19.0709 6.4351C19.0709 6.49402 19.069 6.552 19.0653 6.60904L19.0653 6.60156L19.0653 19.2446L19.0709 19.2717L19.0775 19.3053C19.0915 19.484 19.1719 19.642 19.2935 19.7561L19.2935 19.7561L19.2991 19.7673C20.3053 20.6706 20.9356 21.9752 20.9356 23.4265C20.9356 26.1384 18.738 28.3359 16.0261 28.3369L16.0261 28.3369L16.0252 28.3369ZM16.7265 20.9652L16.7265 10.1906C16.7265 9.80345 16.4123 9.48925 16.0252 9.48925C15.638 9.48925 15.3238 9.80345 15.3238 10.1906L15.3238 10.1906L15.3238 20.9652C14.2353 21.2813 13.4536 22.2688 13.4536 23.4396C13.4536 24.86 14.6047 26.0112 16.0252 26.0112C17.4456 26.0112 18.5968 24.86 18.5968 23.4396C18.5968 22.2688 17.815 21.2813 16.7443 20.9699L16.7265 20.9652ZM25.8441 3.08826C24.1655 3.08826 22.8049 4.44888 22.8049 6.12745C22.8049 7.80601 24.1655 9.16663 25.8441 9.16663C27.5226 9.16663 28.8833 7.80601 28.8833 6.12745L28.8833 6.12745C28.8814 4.44982 27.5217 3.09013 25.8441 3.08826L25.8441 3.08826ZM25.8441 7.76393C24.9407 7.76393 24.2076 7.03078 24.2076 6.12745C24.2076 5.22411 24.9407 4.49096 25.8441 4.49096C26.7474 4.49096 27.4806 5.22411 27.4806 6.12745L27.4806 6.12745C27.4796 7.03078 26.7474 7.76299 25.8441 7.76393L25.8441 7.76393Z" fill="#000000" fill-rule="nonzero" opacity="1" stroke="none"/>
</g>
</svg>
