<?xml version="1.0" encoding="UTF-8" standalone="no"?>
<!DOCTYPE svg PUBLIC "-//W3C//DTD SVG 1.1//EN" "http://www.w3.org/Graphics/SVG/1.1/DTD/svg11.dtd">
<!-- Created with Vectornator (http://vectornator.io/) -->
<svg height="100%" stroke-miterlimit="10" style="fill-rule:nonzero;clip-rule:evenodd;stroke-linecap:round;stroke-linejoin:round;" version="1.1" viewBox="0 0 512 512" width="100%" xml:space="preserve" xmlns="http://www.w3.org/2000/svg" xmlns:xlink="http://www.w3.org/1999/xlink">
<defs/>
<g id="무제">
<path d="M278.865 72.9637C272.652 50.4431 240.178 49.3945 233.135 72.9637C196.537 196.412 118.279 229.958 118.279 316.965C118.279 393.995 179.878 456.322 256 456.322C332.122 456.322 393.721 393.995 393.721 316.965C393.721 229.52 315.635 196.976 278.865 72.9637ZM256 406.242C207.68 406.242 168.359 366.921 168.359 318.601C168.359 311.683 173.962 306.081 180.879 306.081C187.797 306.081 193.399 311.683 193.399 318.601C193.399 353.117 221.484 381.201 256 381.201C262.917 381.201 268.52 386.804 268.52 393.722C268.52 400.639 262.917 406.242 256 406.242Z" fill="#FFFFFF" fill-rule="nonzero" opacity="1" stroke="none"/>
</g>
</svg>
