<?xml version="1.0" encoding="UTF-8" standalone="no"?>
<!DOCTYPE svg PUBLIC "-//W3C//DTD SVG 1.1//EN" "http://www.w3.org/Graphics/SVG/1.1/DTD/svg11.dtd">
<!-- Created with Vectornator (http://vectornator.io/) -->
<svg height="100%" stroke-miterlimit="10" style="fill-rule:nonzero;clip-rule:evenodd;stroke-linecap:round;stroke-linejoin:round;" version="1.1" viewBox="0 0 24 24" width="100%" xml:space="preserve" xmlns="http://www.w3.org/2000/svg" xmlns:xlink="http://www.w3.org/1999/xlink">
<defs/>
<g id="무제">
<path d="M18.5126 21.0205L5.51261 21.0205C3.02847 21.0177 1.01537 19.0046 1.01261 16.5205L1.01261 7.52046C1.01537 5.03632 3.02847 3.02322 5.51261 3.02046L18.5126 3.02046C20.9968 3.02322 23.0099 5.03632 23.0126 7.52046L23.0126 16.5205C23.0099 19.0046 20.9968 21.0177 18.5126 21.0205Z" fill="#000000" fill-rule="nonzero" opacity="1" stroke="none"/>
<path d="M2.64123 12.0205C2.64123 7.8681 6.83694 4.50194 12.0126 4.50194C17.1883 4.50194 21.384 7.8681 21.384 12.0205C21.384 16.1728 17.1883 19.539 12.0126 19.539C6.83694 19.539 2.64123 16.1728 2.64123 12.0205Z" fill="#ffffff" fill-rule="nonzero" opacity="1" stroke="#000000" stroke-linecap="butt" stroke-linejoin="round" stroke-width="0.0971623"/>
</g>
</svg>
